<svg width="38" height="38" fill="none" xmlns="http://www.w3.org/2000/svg"><path fill-rule="evenodd" clip-rule="evenodd" d="M19 38c10.4934 0 19-8.5066 19-19C38 8.50659 29.4934 0 19 0 8.50659 0 0 8.50659 0 19c0 10.4934 8.50659 19 19 19z" fill="#2BE080"/><path fill-rule="evenodd" clip-rule="evenodd" d="M24.8664 22c-.3598 0-.6865.1973-.8937.4915C22.8966 24.0194 21.1368 25 19.1848 25c-3.2008 0-5.885-2.6366-5.885-6s2.6842-6 5.885-6c1.952 0 3.7118.9806 4.7879 2.5085.2072.2942.5339.4915.8937.4915h3.4754c.6621 0 1.1412-.6336.8878-1.2453C27.5857 10.7873 23.7074 8 19.1848 8c-6.0116 0-10.885 4.9249-10.885 11s4.8734 11 10.885 11c4.5226 0 8.4009-2.7873 10.0448-6.7547.2534-.6117-.2257-1.2453-.8878-1.2453h-3.4754z" fill="#fff"/></svg>